<svg width="20" height="21" viewBox="0 0 20 21" fill="none" xmlns="http://www.w3.org/2000/svg">
<path d="M9.99445 20.0289C7.26263 20.0289 6.94059 20.0144 5.87451 19.9678C5.04317 19.9405 4.22258 19.7715 3.44808 19.4681C2.10806 18.9466 1.04846 17.8866 0.527485 16.5464C0.235765 15.7691 0.0784207 14.9478 0.0621877 14.1177C0 13.0539 0 12.7052 0 9.99445C0 7.25486 0.0144364 6.93504 0.0621877 5.87451C0.0787758 5.04555 0.236115 4.22544 0.527485 3.4492C1.0479 2.1072 2.10922 1.04628 3.45142 0.526374C4.22726 0.233428 5.04758 0.0756739 5.87674 0.0599667C6.93726 0 7.28595 0 9.99445 0C12.7485 0 13.065 0.0144364 14.1144 0.0599667C14.9457 0.0758097 15.7682 0.233548 16.5464 0.526374C17.8882 1.04687 18.9493 2.10758 19.4703 3.4492C19.7669 4.23675 19.9251 5.06969 19.9378 5.91116C20 6.97501 20 7.3226 20 10.0322C20 12.7418 19.9845 13.0972 19.9378 14.1488C19.9213 14.9797 19.7636 15.8017 19.4714 16.5797C18.9491 17.9208 17.8879 18.9812 16.5464 19.5025C15.7693 19.7937 14.9485 19.951 14.1188 19.9678C13.0583 20.0289 12.7107 20.0289 9.99445 20.0289ZM9.95669 1.75791C7.24042 1.75791 6.95836 1.77124 5.89783 1.81899C5.26484 1.82738 4.63796 1.94419 4.04442 2.16435C3.16797 2.49973 2.47443 3.19044 2.13548 4.06552C1.91362 4.66552 1.79679 5.29925 1.79012 5.93892C1.73126 7.01499 1.73126 7.29706 1.73126 9.99445C1.73126 12.6596 1.74125 12.9828 1.79012 14.0522C1.80006 14.6854 1.91682 15.3124 2.13548 15.9067C2.47493 16.7812 3.16834 17.4714 4.04442 17.8068C4.63755 18.0284 5.26469 18.1453 5.89783 18.1521C6.97279 18.2143 7.25597 18.2143 9.95669 18.2143C12.6807 18.2143 12.9628 18.201 14.0144 18.1521C14.6479 18.1444 15.2752 18.0276 15.869 17.8068C16.7401 17.4685 17.4291 16.7799 17.7679 15.9089C17.9893 15.3084 18.1062 14.6744 18.1133 14.0344H18.1255C18.1732 12.9728 18.1732 12.6896 18.1732 9.97668C18.1732 7.26374 18.161 6.97835 18.1133 5.91782C18.1033 5.28534 17.9865 4.65909 17.7679 4.06552C17.4299 3.19331 16.7408 2.50338 15.869 2.16435C15.2753 1.94308 14.6479 1.82623 14.0144 1.81899C12.9406 1.75791 12.6596 1.75791 9.95669 1.75791ZM9.99445 15.1238C7.91781 15.1252 6.04488 13.8753 5.24915 11.9572C4.45342 10.0391 4.89162 7.83046 6.35939 6.36142C7.82716 4.89238 10.0354 4.45227 11.9542 5.24634C13.873 6.04041 15.1245 7.91226 15.1249 9.9889C15.1219 12.8218 12.8274 15.1183 9.99445 15.1238ZM9.99445 6.65519C8.15452 6.65519 6.66296 8.14675 6.66296 9.98667C6.66296 11.8266 8.15452 13.3182 9.99445 13.3182C11.8344 13.3182 13.3259 11.8266 13.3259 9.98667C13.3217 8.14852 11.8326 6.65947 9.99445 6.65519ZM15.3248 5.86341C14.6645 5.86096 14.1309 5.32436 14.1322 4.66409C14.1334 4.00381 14.669 3.46919 15.3293 3.46919C15.9895 3.46919 16.5251 4.0038 16.5264 4.66408C16.5267 4.98263 16.4001 5.2882 16.1746 5.51325C15.9492 5.73829 15.6434 5.8643 15.3248 5.86341Z" fill="#3B3F4A" fill-opacity="0.5"/>
</svg>
