<svg width="19" height="21" viewBox="0 0 19 21" fill="none" xmlns="http://www.w3.org/2000/svg">
<path fill-rule="evenodd" clip-rule="evenodd" d="M3 0.35376C1.34315 0.35376 0 1.69691 0 3.35376V17.3538C0 19.0106 1.34315 20.3538 3 20.3538H16C17.6569 20.3538 19 19.0106 19 17.3538V3.35376C19 1.69691 17.6569 0.35376 16 0.35376H3ZM7.20545 5.84815C7.20545 6.51569 6.65578 7.05683 5.97772 7.05683C5.29967 7.05683 4.75 6.51569 4.75 5.84815C4.75 5.18062 5.29967 4.63947 5.97772 4.63947C6.65578 4.63947 7.20545 5.18062 7.20545 5.84815ZM4.91789 7.94526H7.01657V14.6395H4.91789V7.94526ZM8.29676 7.94526H10.3954V8.80411C10.7477 8.33237 11.424 7.81096 12.5151 7.81096C14.3523 7.81096 14.9108 8.85046 14.9286 11.1064V14.6395H12.8299C12.8299 14.2029 12.827 13.7639 12.8241 13.3251V13.3251V13.3251C12.8201 12.7027 12.816 12.0807 12.8201 11.466C12.8255 10.6641 12.8325 9.62914 11.6756 9.62914C10.652 9.62914 10.3954 10.4235 10.3954 11.2144V14.6395H8.29676V7.94526Z" fill="#3B3F4A" fill-opacity="0.5"/>
</svg>
